<?xml version="1.0" encoding="utf-8"?>
<!-- Generator: Adobe Illustrator 26.0.2, SVG Export Plug-In . SVG Version: 6.00 Build 0)  -->
<svg version="1.1" id="Layer_1" xmlns="http://www.w3.org/2000/svg" xmlns:xlink="http://www.w3.org/1999/xlink" x="0px" y="0px"
	 viewBox="0 0 25 25" style="enable-background:new 0 0 25 25;" xml:space="preserve">
<style type="text/css">
	.st0{fill:none;}
</style>
<g>
	<path d="M8.3,14.4c-0.1-0.1-0.3-0.2-0.5-0.2H6.2c-0.2,0-0.3,0.1-0.5,0.2c-0.1,0.1-0.2,0.3-0.2,0.5c0,0.2,0.1,0.4,0.2,0.5
		s0.3,0.2,0.5,0.2h1.6c0.2,0,0.4-0.1,0.5-0.2c0.1-0.1,0.2-0.3,0.2-0.5C8.5,14.7,8.4,14.5,8.3,14.4z M19.2,14.4
		c-0.1-0.1-0.3-0.2-0.5-0.2h-1.6c-0.2,0-0.4,0.1-0.5,0.2c-0.1,0.1-0.2,0.3-0.2,0.5c0,0.2,0.1,0.4,0.2,0.5c0.1,0.1,0.3,0.2,0.5,0.2
		h1.6c0.2,0,0.3-0.1,0.5-0.2s0.2-0.3,0.2-0.5C19.4,14.7,19.4,14.5,19.2,14.4z M19.2,14.4c-0.1-0.1-0.3-0.2-0.5-0.2h-1.6
		c-0.2,0-0.4,0.1-0.5,0.2c-0.1,0.1-0.2,0.3-0.2,0.5c0,0.2,0.1,0.4,0.2,0.5c0.1,0.1,0.3,0.2,0.5,0.2h1.6c0.2,0,0.3-0.1,0.5-0.2
		s0.2-0.3,0.2-0.5C19.4,14.7,19.4,14.5,19.2,14.4z M8.3,14.4c-0.1-0.1-0.3-0.2-0.5-0.2H6.2c-0.2,0-0.3,0.1-0.5,0.2
		c-0.1,0.1-0.2,0.3-0.2,0.5c0,0.2,0.1,0.4,0.2,0.5s0.3,0.2,0.5,0.2h1.6c0.2,0,0.4-0.1,0.5-0.2c0.1-0.1,0.2-0.3,0.2-0.5
		C8.5,14.7,8.4,14.5,8.3,14.4z M8.3,14.4c-0.1-0.1-0.3-0.2-0.5-0.2H6.2c-0.2,0-0.3,0.1-0.5,0.2c-0.1,0.1-0.2,0.3-0.2,0.5
		c0,0.2,0.1,0.4,0.2,0.5s0.3,0.2,0.5,0.2h1.6c0.2,0,0.4-0.1,0.5-0.2c0.1-0.1,0.2-0.3,0.2-0.5C8.5,14.7,8.4,14.5,8.3,14.4z
		 M19.2,14.4c-0.1-0.1-0.3-0.2-0.5-0.2h-1.6c-0.2,0-0.4,0.1-0.5,0.2c-0.1,0.1-0.2,0.3-0.2,0.5c0,0.2,0.1,0.4,0.2,0.5
		c0.1,0.1,0.3,0.2,0.5,0.2h1.6c0.2,0,0.3-0.1,0.5-0.2s0.2-0.3,0.2-0.5C19.4,14.7,19.4,14.5,19.2,14.4z M19.2,14.4
		c-0.1-0.1-0.3-0.2-0.5-0.2h-1.6c-0.2,0-0.4,0.1-0.5,0.2c-0.1,0.1-0.2,0.3-0.2,0.5c0,0.2,0.1,0.4,0.2,0.5c0.1,0.1,0.3,0.2,0.5,0.2
		h1.6c0.2,0,0.3-0.1,0.5-0.2s0.2-0.3,0.2-0.5C19.4,14.7,19.4,14.5,19.2,14.4z M8.3,14.4c-0.1-0.1-0.3-0.2-0.5-0.2H6.2
		c-0.2,0-0.3,0.1-0.5,0.2c-0.1,0.1-0.2,0.3-0.2,0.5c0,0.2,0.1,0.4,0.2,0.5s0.3,0.2,0.5,0.2h1.6c0.2,0,0.4-0.1,0.5-0.2
		c0.1-0.1,0.2-0.3,0.2-0.5C8.5,14.7,8.4,14.5,8.3,14.4z M8.3,14.4c-0.1-0.1-0.3-0.2-0.5-0.2H6.2c-0.2,0-0.3,0.1-0.5,0.2
		c-0.1,0.1-0.2,0.3-0.2,0.5c0,0.2,0.1,0.4,0.2,0.5s0.3,0.2,0.5,0.2h1.6c0.2,0,0.4-0.1,0.5-0.2c0.1-0.1,0.2-0.3,0.2-0.5
		C8.5,14.7,8.4,14.5,8.3,14.4z M19.2,14.4c-0.1-0.1-0.3-0.2-0.5-0.2h-1.6c-0.2,0-0.4,0.1-0.5,0.2c-0.1,0.1-0.2,0.3-0.2,0.5
		c0,0.2,0.1,0.4,0.2,0.5c0.1,0.1,0.3,0.2,0.5,0.2h1.6c0.2,0,0.3-0.1,0.5-0.2s0.2-0.3,0.2-0.5C19.4,14.7,19.4,14.5,19.2,14.4z
		 M19.2,14.4c-0.1-0.1-0.3-0.2-0.5-0.2h-1.6c-0.2,0-0.4,0.1-0.5,0.2c-0.1,0.1-0.2,0.3-0.2,0.5c0,0.2,0.1,0.4,0.2,0.5
		c0.1,0.1,0.3,0.2,0.5,0.2h1.6c0.2,0,0.3-0.1,0.5-0.2s0.2-0.3,0.2-0.5C19.4,14.7,19.4,14.5,19.2,14.4z M8.3,14.4
		c-0.1-0.1-0.3-0.2-0.5-0.2H6.2c-0.2,0-0.3,0.1-0.5,0.2c-0.1,0.1-0.2,0.3-0.2,0.5c0,0.2,0.1,0.4,0.2,0.5s0.3,0.2,0.5,0.2h1.6
		c0.2,0,0.4-0.1,0.5-0.2c0.1-0.1,0.2-0.3,0.2-0.5C8.5,14.7,8.4,14.5,8.3,14.4z M8.3,14.4c-0.1-0.1-0.3-0.2-0.5-0.2H6.2
		c-0.2,0-0.3,0.1-0.5,0.2c-0.1,0.1-0.2,0.3-0.2,0.5c0,0.2,0.1,0.4,0.2,0.5s0.3,0.2,0.5,0.2h1.6c0.2,0,0.4-0.1,0.5-0.2
		c0.1-0.1,0.2-0.3,0.2-0.5C8.5,14.7,8.4,14.5,8.3,14.4z M19.2,14.4c-0.1-0.1-0.3-0.2-0.5-0.2h-1.6c-0.2,0-0.4,0.1-0.5,0.2
		c-0.1,0.1-0.2,0.3-0.2,0.5c0,0.2,0.1,0.4,0.2,0.5c0.1,0.1,0.3,0.2,0.5,0.2h1.6c0.2,0,0.3-0.1,0.5-0.2s0.2-0.3,0.2-0.5
		C19.4,14.7,19.4,14.5,19.2,14.4z M19.2,14.4c-0.1-0.1-0.3-0.2-0.5-0.2h-1.6c-0.2,0-0.4,0.1-0.5,0.2c-0.1,0.1-0.2,0.3-0.2,0.5
		c0,0.2,0.1,0.4,0.2,0.5c0.1,0.1,0.3,0.2,0.5,0.2h1.6c0.2,0,0.3-0.1,0.5-0.2s0.2-0.3,0.2-0.5C19.4,14.7,19.4,14.5,19.2,14.4z
		 M7.8,14.2H6.2c-0.2,0-0.3,0.1-0.5,0.2c-0.1,0.1-0.2,0.3-0.2,0.5c0,0.2,0.1,0.4,0.2,0.5s0.3,0.2,0.5,0.2h1.6c0.2,0,0.4-0.1,0.5-0.2
		c0.1-0.1,0.2-0.3,0.2-0.5c0-0.2-0.1-0.4-0.2-0.5C8.2,14.2,8,14.2,7.8,14.2z M23.9,11.2c-0.1-0.1-0.3-0.2-0.5-0.2h-1.1l0-0.1
		l-2.7-6.1c-0.1-0.3-0.3-0.5-0.5-0.6C18.8,4.1,18.5,4,18.2,4H6.8C6.5,4,6.2,4.1,6,4.2C5.7,4.4,5.5,4.6,5.4,4.9L2.7,11l0,0.1H1.6
		c-0.2,0-0.3,0.1-0.5,0.2s-0.2,0.3-0.2,0.5c0,0.2,0.1,0.4,0.2,0.5c0.1,0.1,0.3,0.2,0.5,0.2h0.9v7.9c0,0.4,0.2,0.8,0.4,1
		c0.3,0.3,0.7,0.4,1,0.4h2.3c0.4,0,0.8-0.2,1-0.4c0.3-0.3,0.4-0.6,0.4-1v-1.7h9.6v1.7c0,0.4,0.2,0.8,0.4,1c0.3,0.3,0.6,0.4,1,0.4
		h2.3c0.4,0,0.8-0.2,1-0.4c0.3-0.3,0.4-0.6,0.4-1v-7.9h0.9c0.2,0,0.3-0.1,0.5-0.2c0.1-0.1,0.2-0.3,0.2-0.5
		C24.1,11.5,24,11.4,23.9,11.2z M4.2,10.9l2.4-5.5l0-0.1h11.6l0,0.1l2.4,5.5l0.1,0.1H4.2L4.2,10.9z M6.3,20.4H3.8v-1.8h2.5V20.4z
		 M21.2,20.4h-2.5v-1.8h2.5V20.4z M21.2,17.3H3.8v-4.9h17.4V17.3z M17.2,15.5h1.6c0.2,0,0.3-0.1,0.5-0.2s0.2-0.3,0.2-0.5
		c0-0.2-0.1-0.4-0.2-0.5c-0.1-0.1-0.3-0.2-0.5-0.2h-1.6c-0.2,0-0.4,0.1-0.5,0.2c-0.1,0.1-0.2,0.3-0.2,0.5c0,0.2,0.1,0.4,0.2,0.5
		C16.8,15.5,17,15.5,17.2,15.5z M6.2,15.5h1.6c0.2,0,0.4-0.1,0.5-0.2c0.1-0.1,0.2-0.3,0.2-0.5c0-0.2-0.1-0.4-0.2-0.5
		c-0.1-0.1-0.3-0.2-0.5-0.2H6.2c-0.2,0-0.3,0.1-0.5,0.2c-0.1,0.1-0.2,0.3-0.2,0.5c0,0.2,0.1,0.4,0.2,0.5S6.1,15.5,6.2,15.5z
		 M8.3,14.4c-0.1-0.1-0.3-0.2-0.5-0.2H6.2c-0.2,0-0.3,0.1-0.5,0.2c-0.1,0.1-0.2,0.3-0.2,0.5c0,0.2,0.1,0.4,0.2,0.5s0.3,0.2,0.5,0.2
		h1.6c0.2,0,0.4-0.1,0.5-0.2c0.1-0.1,0.2-0.3,0.2-0.5C8.5,14.7,8.4,14.5,8.3,14.4z M19.2,14.4c-0.1-0.1-0.3-0.2-0.5-0.2h-1.6
		c-0.2,0-0.4,0.1-0.5,0.2c-0.1,0.1-0.2,0.3-0.2,0.5c0,0.2,0.1,0.4,0.2,0.5c0.1,0.1,0.3,0.2,0.5,0.2h1.6c0.2,0,0.3-0.1,0.5-0.2
		s0.2-0.3,0.2-0.5C19.4,14.7,19.4,14.5,19.2,14.4z M19.2,14.4c-0.1-0.1-0.3-0.2-0.5-0.2h-1.6c-0.2,0-0.4,0.1-0.5,0.2
		c-0.1,0.1-0.2,0.3-0.2,0.5c0,0.2,0.1,0.4,0.2,0.5c0.1,0.1,0.3,0.2,0.5,0.2h1.6c0.2,0,0.3-0.1,0.5-0.2s0.2-0.3,0.2-0.5
		C19.4,14.7,19.4,14.5,19.2,14.4z M8.3,14.4c-0.1-0.1-0.3-0.2-0.5-0.2H6.2c-0.2,0-0.3,0.1-0.5,0.2c-0.1,0.1-0.2,0.3-0.2,0.5
		c0,0.2,0.1,0.4,0.2,0.5s0.3,0.2,0.5,0.2h1.6c0.2,0,0.4-0.1,0.5-0.2c0.1-0.1,0.2-0.3,0.2-0.5C8.5,14.7,8.4,14.5,8.3,14.4z M8.3,14.4
		c-0.1-0.1-0.3-0.2-0.5-0.2H6.2c-0.2,0-0.3,0.1-0.5,0.2c-0.1,0.1-0.2,0.3-0.2,0.5c0,0.2,0.1,0.4,0.2,0.5s0.3,0.2,0.5,0.2h1.6
		c0.2,0,0.4-0.1,0.5-0.2c0.1-0.1,0.2-0.3,0.2-0.5C8.5,14.7,8.4,14.5,8.3,14.4z M19.2,14.4c-0.1-0.1-0.3-0.2-0.5-0.2h-1.6
		c-0.2,0-0.4,0.1-0.5,0.2c-0.1,0.1-0.2,0.3-0.2,0.5c0,0.2,0.1,0.4,0.2,0.5c0.1,0.1,0.3,0.2,0.5,0.2h1.6c0.2,0,0.3-0.1,0.5-0.2
		s0.2-0.3,0.2-0.5C19.4,14.7,19.4,14.5,19.2,14.4z M19.2,14.4c-0.1-0.1-0.3-0.2-0.5-0.2h-1.6c-0.2,0-0.4,0.1-0.5,0.2
		c-0.1,0.1-0.2,0.3-0.2,0.5c0,0.2,0.1,0.4,0.2,0.5c0.1,0.1,0.3,0.2,0.5,0.2h1.6c0.2,0,0.3-0.1,0.5-0.2s0.2-0.3,0.2-0.5
		C19.4,14.7,19.4,14.5,19.2,14.4z M8.3,14.4c-0.1-0.1-0.3-0.2-0.5-0.2H6.2c-0.2,0-0.3,0.1-0.5,0.2c-0.1,0.1-0.2,0.3-0.2,0.5
		c0,0.2,0.1,0.4,0.2,0.5s0.3,0.2,0.5,0.2h1.6c0.2,0,0.4-0.1,0.5-0.2c0.1-0.1,0.2-0.3,0.2-0.5C8.5,14.7,8.4,14.5,8.3,14.4z M8.3,14.4
		c-0.1-0.1-0.3-0.2-0.5-0.2H6.2c-0.2,0-0.3,0.1-0.5,0.2c-0.1,0.1-0.2,0.3-0.2,0.5c0,0.2,0.1,0.4,0.2,0.5s0.3,0.2,0.5,0.2h1.6
		c0.2,0,0.4-0.1,0.5-0.2c0.1-0.1,0.2-0.3,0.2-0.5C8.5,14.7,8.4,14.5,8.3,14.4z M19.2,14.4c-0.1-0.1-0.3-0.2-0.5-0.2h-1.6
		c-0.2,0-0.4,0.1-0.5,0.2c-0.1,0.1-0.2,0.3-0.2,0.5c0,0.2,0.1,0.4,0.2,0.5c0.1,0.1,0.3,0.2,0.5,0.2h1.6c0.2,0,0.3-0.1,0.5-0.2
		s0.2-0.3,0.2-0.5C19.4,14.7,19.4,14.5,19.2,14.4z M19.2,14.4c-0.1-0.1-0.3-0.2-0.5-0.2h-1.6c-0.2,0-0.4,0.1-0.5,0.2
		c-0.1,0.1-0.2,0.3-0.2,0.5c0,0.2,0.1,0.4,0.2,0.5c0.1,0.1,0.3,0.2,0.5,0.2h1.6c0.2,0,0.3-0.1,0.5-0.2s0.2-0.3,0.2-0.5
		C19.4,14.7,19.4,14.5,19.2,14.4z M8.3,14.4c-0.1-0.1-0.3-0.2-0.5-0.2H6.2c-0.2,0-0.3,0.1-0.5,0.2c-0.1,0.1-0.2,0.3-0.2,0.5
		c0,0.2,0.1,0.4,0.2,0.5s0.3,0.2,0.5,0.2h1.6c0.2,0,0.4-0.1,0.5-0.2c0.1-0.1,0.2-0.3,0.2-0.5C8.5,14.7,8.4,14.5,8.3,14.4z M8.3,14.4
		c-0.1-0.1-0.3-0.2-0.5-0.2H6.2c-0.2,0-0.3,0.1-0.5,0.2c-0.1,0.1-0.2,0.3-0.2,0.5c0,0.2,0.1,0.4,0.2,0.5s0.3,0.2,0.5,0.2h1.6
		c0.2,0,0.4-0.1,0.5-0.2c0.1-0.1,0.2-0.3,0.2-0.5C8.5,14.7,8.4,14.5,8.3,14.4z M19.2,14.4c-0.1-0.1-0.3-0.2-0.5-0.2h-1.6
		c-0.2,0-0.4,0.1-0.5,0.2c-0.1,0.1-0.2,0.3-0.2,0.5c0,0.2,0.1,0.4,0.2,0.5c0.1,0.1,0.3,0.2,0.5,0.2h1.6c0.2,0,0.3-0.1,0.5-0.2
		s0.2-0.3,0.2-0.5C19.4,14.7,19.4,14.5,19.2,14.4z M8.3,14.4c-0.1-0.1-0.3-0.2-0.5-0.2H6.2c-0.2,0-0.3,0.1-0.5,0.2
		c-0.1,0.1-0.2,0.3-0.2,0.5c0,0.2,0.1,0.4,0.2,0.5s0.3,0.2,0.5,0.2h1.6c0.2,0,0.4-0.1,0.5-0.2c0.1-0.1,0.2-0.3,0.2-0.5
		C8.5,14.7,8.4,14.5,8.3,14.4z M19.2,14.4c-0.1-0.1-0.3-0.2-0.5-0.2h-1.6c-0.2,0-0.4,0.1-0.5,0.2c-0.1,0.1-0.2,0.3-0.2,0.5
		c0,0.2,0.1,0.4,0.2,0.5c0.1,0.1,0.3,0.2,0.5,0.2h1.6c0.2,0,0.3-0.1,0.5-0.2s0.2-0.3,0.2-0.5C19.4,14.7,19.4,14.5,19.2,14.4z"/>
	<path class="st0" d="M8.3,14.4c-0.1-0.1-0.3-0.2-0.5-0.2H6.2c-0.2,0-0.3,0.1-0.5,0.2c-0.1,0.1-0.2,0.3-0.2,0.5
		c0,0.2,0.1,0.4,0.2,0.5s0.3,0.2,0.5,0.2h1.6c0.2,0,0.4-0.1,0.5-0.2c0.1-0.1,0.2-0.3,0.2-0.5C8.5,14.7,8.4,14.5,8.3,14.4z
		 M19.2,14.4c-0.1-0.1-0.3-0.2-0.5-0.2h-1.6c-0.2,0-0.4,0.1-0.5,0.2c-0.1,0.1-0.2,0.3-0.2,0.5c0,0.2,0.1,0.4,0.2,0.5
		c0.1,0.1,0.3,0.2,0.5,0.2h1.6c0.2,0,0.3-0.1,0.5-0.2s0.2-0.3,0.2-0.5C19.4,14.7,19.4,14.5,19.2,14.4z M19.2,14.4
		c-0.1-0.1-0.3-0.2-0.5-0.2h-1.6c-0.2,0-0.4,0.1-0.5,0.2c-0.1,0.1-0.2,0.3-0.2,0.5c0,0.2,0.1,0.4,0.2,0.5c0.1,0.1,0.3,0.2,0.5,0.2
		h1.6c0.2,0,0.3-0.1,0.5-0.2s0.2-0.3,0.2-0.5C19.4,14.7,19.4,14.5,19.2,14.4z M19.2,14.4c-0.1-0.1-0.3-0.2-0.5-0.2h-1.6
		c-0.2,0-0.4,0.1-0.5,0.2c-0.1,0.1-0.2,0.3-0.2,0.5c0,0.2,0.1,0.4,0.2,0.5c0.1,0.1,0.3,0.2,0.5,0.2h1.6c0.2,0,0.3-0.1,0.5-0.2
		s0.2-0.3,0.2-0.5C19.4,14.7,19.4,14.5,19.2,14.4z M8.3,14.4c-0.1-0.1-0.3-0.2-0.5-0.2H6.2c-0.2,0-0.3,0.1-0.5,0.2
		c-0.1,0.1-0.2,0.3-0.2,0.5c0,0.2,0.1,0.4,0.2,0.5s0.3,0.2,0.5,0.2h1.6c0.2,0,0.4-0.1,0.5-0.2c0.1-0.1,0.2-0.3,0.2-0.5
		C8.5,14.7,8.4,14.5,8.3,14.4z M19.2,14.4c-0.1-0.1-0.3-0.2-0.5-0.2h-1.6c-0.2,0-0.4,0.1-0.5,0.2c-0.1,0.1-0.2,0.3-0.2,0.5
		c0,0.2,0.1,0.4,0.2,0.5c0.1,0.1,0.3,0.2,0.5,0.2h1.6c0.2,0,0.3-0.1,0.5-0.2s0.2-0.3,0.2-0.5C19.4,14.7,19.4,14.5,19.2,14.4z
		 M19.2,14.4c-0.1-0.1-0.3-0.2-0.5-0.2h-1.6c-0.2,0-0.4,0.1-0.5,0.2c-0.1,0.1-0.2,0.3-0.2,0.5c0,0.2,0.1,0.4,0.2,0.5
		c0.1,0.1,0.3,0.2,0.5,0.2h1.6c0.2,0,0.3-0.1,0.5-0.2s0.2-0.3,0.2-0.5C19.4,14.7,19.4,14.5,19.2,14.4z M19.2,14.4
		c-0.1-0.1-0.3-0.2-0.5-0.2h-1.6c-0.2,0-0.4,0.1-0.5,0.2c-0.1,0.1-0.2,0.3-0.2,0.5c0,0.2,0.1,0.4,0.2,0.5c0.1,0.1,0.3,0.2,0.5,0.2
		h1.6c0.2,0,0.3-0.1,0.5-0.2s0.2-0.3,0.2-0.5C19.4,14.7,19.4,14.5,19.2,14.4z M8.3,14.4c-0.1-0.1-0.3-0.2-0.5-0.2H6.2
		c-0.2,0-0.3,0.1-0.5,0.2c-0.1,0.1-0.2,0.3-0.2,0.5c0,0.2,0.1,0.4,0.2,0.5s0.3,0.2,0.5,0.2h1.6c0.2,0,0.4-0.1,0.5-0.2
		c0.1-0.1,0.2-0.3,0.2-0.5C8.5,14.7,8.4,14.5,8.3,14.4z M19.2,14.4c-0.1-0.1-0.3-0.2-0.5-0.2h-1.6c-0.2,0-0.4,0.1-0.5,0.2
		c-0.1,0.1-0.2,0.3-0.2,0.5c0,0.2,0.1,0.4,0.2,0.5c0.1,0.1,0.3,0.2,0.5,0.2h1.6c0.2,0,0.3-0.1,0.5-0.2s0.2-0.3,0.2-0.5
		C19.4,14.7,19.4,14.5,19.2,14.4z M19.2,14.4c-0.1-0.1-0.3-0.2-0.5-0.2h-1.6c-0.2,0-0.4,0.1-0.5,0.2c-0.1,0.1-0.2,0.3-0.2,0.5
		c0,0.2,0.1,0.4,0.2,0.5c0.1,0.1,0.3,0.2,0.5,0.2h1.6c0.2,0,0.3-0.1,0.5-0.2s0.2-0.3,0.2-0.5C19.4,14.7,19.4,14.5,19.2,14.4z
		 M8.3,14.4c-0.1-0.1-0.3-0.2-0.5-0.2H6.2c-0.2,0-0.3,0.1-0.5,0.2c-0.1,0.1-0.2,0.3-0.2,0.5c0,0.2,0.1,0.4,0.2,0.5s0.3,0.2,0.5,0.2
		h1.6c0.2,0,0.4-0.1,0.5-0.2c0.1-0.1,0.2-0.3,0.2-0.5C8.5,14.7,8.4,14.5,8.3,14.4z M8.3,14.4c-0.1-0.1-0.3-0.2-0.5-0.2H6.2
		c-0.2,0-0.3,0.1-0.5,0.2c-0.1,0.1-0.2,0.3-0.2,0.5c0,0.2,0.1,0.4,0.2,0.5s0.3,0.2,0.5,0.2h1.6c0.2,0,0.4-0.1,0.5-0.2
		c0.1-0.1,0.2-0.3,0.2-0.5C8.5,14.7,8.4,14.5,8.3,14.4z M19.2,14.4c-0.1-0.1-0.3-0.2-0.5-0.2h-1.6c-0.2,0-0.4,0.1-0.5,0.2
		c-0.1,0.1-0.2,0.3-0.2,0.5c0,0.2,0.1,0.4,0.2,0.5c0.1,0.1,0.3,0.2,0.5,0.2h1.6c0.2,0,0.3-0.1,0.5-0.2s0.2-0.3,0.2-0.5
		C19.4,14.7,19.4,14.5,19.2,14.4z M19.2,14.4c-0.1-0.1-0.3-0.2-0.5-0.2h-1.6c-0.2,0-0.4,0.1-0.5,0.2c-0.1,0.1-0.2,0.3-0.2,0.5
		c0,0.2,0.1,0.4,0.2,0.5c0.1,0.1,0.3,0.2,0.5,0.2h1.6c0.2,0,0.3-0.1,0.5-0.2s0.2-0.3,0.2-0.5C19.4,14.7,19.4,14.5,19.2,14.4z
		 M7.8,14.2H6.2c-0.2,0-0.3,0.1-0.5,0.2c-0.1,0.1-0.2,0.3-0.2,0.5c0,0.2,0.1,0.4,0.2,0.5s0.3,0.2,0.5,0.2h1.6c0.2,0,0.4-0.1,0.5-0.2
		c0.1-0.1,0.2-0.3,0.2-0.5c0-0.2-0.1-0.4-0.2-0.5C8.2,14.2,8,14.2,7.8,14.2z M23.9,11.2c-0.1-0.1-0.3-0.2-0.5-0.2h-1.1l0-0.1
		l-2.7-6.1c-0.1-0.3-0.3-0.5-0.5-0.6C18.8,4.1,18.5,4,18.2,4H6.8C6.5,4,6.2,4.1,6,4.2C5.7,4.4,5.5,4.6,5.4,4.9L2.7,11l0,0.1H1.6
		c-0.2,0-0.3,0.1-0.5,0.2s-0.2,0.3-0.2,0.5c0,0.2,0.1,0.4,0.2,0.5c0.1,0.1,0.3,0.2,0.5,0.2h0.9v7.9c0,0.4,0.2,0.8,0.4,1
		c0.3,0.3,0.7,0.4,1,0.4h2.3c0.4,0,0.8-0.2,1-0.4c0.3-0.3,0.4-0.6,0.4-1v-1.7h9.6v1.7c0,0.4,0.2,0.8,0.4,1c0.3,0.3,0.6,0.4,1,0.4
		h2.3c0.4,0,0.8-0.2,1-0.4c0.3-0.3,0.4-0.6,0.4-1v-7.9h0.9c0.2,0,0.3-0.1,0.5-0.2c0.1-0.1,0.2-0.3,0.2-0.5
		C24.1,11.5,24,11.4,23.9,11.2z M6.3,20.4H3.8v-1.8h2.5V20.4z M21.2,20.4h-2.5v-1.8h2.5V20.4z M21.2,17.3H3.8v-4.9h17.4V17.3z
		 M17.2,15.5h1.6c0.2,0,0.3-0.1,0.5-0.2s0.2-0.3,0.2-0.5c0-0.2-0.1-0.4-0.2-0.5c-0.1-0.1-0.3-0.2-0.5-0.2h-1.6
		c-0.2,0-0.4,0.1-0.5,0.2c-0.1,0.1-0.2,0.3-0.2,0.5c0,0.2,0.1,0.4,0.2,0.5C16.8,15.5,17,15.5,17.2,15.5z M6.2,15.5h1.6
		c0.2,0,0.4-0.1,0.5-0.2c0.1-0.1,0.2-0.3,0.2-0.5c0-0.2-0.1-0.4-0.2-0.5c-0.1-0.1-0.3-0.2-0.5-0.2H6.2c-0.2,0-0.3,0.1-0.5,0.2
		c-0.1,0.1-0.2,0.3-0.2,0.5c0,0.2,0.1,0.4,0.2,0.5S6.1,15.5,6.2,15.5z M8.3,14.4c-0.1-0.1-0.3-0.2-0.5-0.2H6.2
		c-0.2,0-0.3,0.1-0.5,0.2c-0.1,0.1-0.2,0.3-0.2,0.5c0,0.2,0.1,0.4,0.2,0.5s0.3,0.2,0.5,0.2h1.6c0.2,0,0.4-0.1,0.5-0.2
		c0.1-0.1,0.2-0.3,0.2-0.5C8.5,14.7,8.4,14.5,8.3,14.4z M19.2,14.4c-0.1-0.1-0.3-0.2-0.5-0.2h-1.6c-0.2,0-0.4,0.1-0.5,0.2
		c-0.1,0.1-0.2,0.3-0.2,0.5c0,0.2,0.1,0.4,0.2,0.5c0.1,0.1,0.3,0.2,0.5,0.2h1.6c0.2,0,0.3-0.1,0.5-0.2s0.2-0.3,0.2-0.5
		C19.4,14.7,19.4,14.5,19.2,14.4z M19.2,14.4c-0.1-0.1-0.3-0.2-0.5-0.2h-1.6c-0.2,0-0.4,0.1-0.5,0.2c-0.1,0.1-0.2,0.3-0.2,0.5
		c0,0.2,0.1,0.4,0.2,0.5c0.1,0.1,0.3,0.2,0.5,0.2h1.6c0.2,0,0.3-0.1,0.5-0.2s0.2-0.3,0.2-0.5C19.4,14.7,19.4,14.5,19.2,14.4z
		 M8.3,14.4c-0.1-0.1-0.3-0.2-0.5-0.2H6.2c-0.2,0-0.3,0.1-0.5,0.2c-0.1,0.1-0.2,0.3-0.2,0.5c0,0.2,0.1,0.4,0.2,0.5s0.3,0.2,0.5,0.2
		h1.6c0.2,0,0.4-0.1,0.5-0.2c0.1-0.1,0.2-0.3,0.2-0.5C8.5,14.7,8.4,14.5,8.3,14.4z M8.3,14.4c-0.1-0.1-0.3-0.2-0.5-0.2H6.2
		c-0.2,0-0.3,0.1-0.5,0.2c-0.1,0.1-0.2,0.3-0.2,0.5c0,0.2,0.1,0.4,0.2,0.5s0.3,0.2,0.5,0.2h1.6c0.2,0,0.4-0.1,0.5-0.2
		c0.1-0.1,0.2-0.3,0.2-0.5C8.5,14.7,8.4,14.5,8.3,14.4z M19.2,14.4c-0.1-0.1-0.3-0.2-0.5-0.2h-1.6c-0.2,0-0.4,0.1-0.5,0.2
		c-0.1,0.1-0.2,0.3-0.2,0.5c0,0.2,0.1,0.4,0.2,0.5c0.1,0.1,0.3,0.2,0.5,0.2h1.6c0.2,0,0.3-0.1,0.5-0.2s0.2-0.3,0.2-0.5
		C19.4,14.7,19.4,14.5,19.2,14.4z M8.3,14.4c-0.1-0.1-0.3-0.2-0.5-0.2H6.2c-0.2,0-0.3,0.1-0.5,0.2c-0.1,0.1-0.2,0.3-0.2,0.5
		c0,0.2,0.1,0.4,0.2,0.5s0.3,0.2,0.5,0.2h1.6c0.2,0,0.4-0.1,0.5-0.2c0.1-0.1,0.2-0.3,0.2-0.5C8.5,14.7,8.4,14.5,8.3,14.4z
		 M19.2,14.4c-0.1-0.1-0.3-0.2-0.5-0.2h-1.6c-0.2,0-0.4,0.1-0.5,0.2c-0.1,0.1-0.2,0.3-0.2,0.5c0,0.2,0.1,0.4,0.2,0.5
		c0.1,0.1,0.3,0.2,0.5,0.2h1.6c0.2,0,0.3-0.1,0.5-0.2s0.2-0.3,0.2-0.5C19.4,14.7,19.4,14.5,19.2,14.4z M19.2,14.4
		c-0.1-0.1-0.3-0.2-0.5-0.2h-1.6c-0.2,0-0.4,0.1-0.5,0.2c-0.1,0.1-0.2,0.3-0.2,0.5c0,0.2,0.1,0.4,0.2,0.5c0.1,0.1,0.3,0.2,0.5,0.2
		h1.6c0.2,0,0.3-0.1,0.5-0.2s0.2-0.3,0.2-0.5C19.4,14.7,19.4,14.5,19.2,14.4z M19.2,14.4c-0.1-0.1-0.3-0.2-0.5-0.2h-1.6
		c-0.2,0-0.4,0.1-0.5,0.2c-0.1,0.1-0.2,0.3-0.2,0.5c0,0.2,0.1,0.4,0.2,0.5c0.1,0.1,0.3,0.2,0.5,0.2h1.6c0.2,0,0.3-0.1,0.5-0.2
		s0.2-0.3,0.2-0.5C19.4,14.7,19.4,14.5,19.2,14.4z M20.8,10.9l-2.4-5.5l0-0.1H6.7l0,0.1l-2.4,5.5L4.2,11h16.7L20.8,10.9z M8.3,14.4
		c-0.1-0.1-0.3-0.2-0.5-0.2H6.2c-0.2,0-0.3,0.1-0.5,0.2c-0.1,0.1-0.2,0.3-0.2,0.5c0,0.2,0.1,0.4,0.2,0.5s0.3,0.2,0.5,0.2h1.6
		c0.2,0,0.4-0.1,0.5-0.2c0.1-0.1,0.2-0.3,0.2-0.5C8.5,14.7,8.4,14.5,8.3,14.4z M19.2,14.4c-0.1-0.1-0.3-0.2-0.5-0.2h-1.6
		c-0.2,0-0.4,0.1-0.5,0.2c-0.1,0.1-0.2,0.3-0.2,0.5c0,0.2,0.1,0.4,0.2,0.5c0.1,0.1,0.3,0.2,0.5,0.2h1.6c0.2,0,0.3-0.1,0.5-0.2
		s0.2-0.3,0.2-0.5C19.4,14.7,19.4,14.5,19.2,14.4z M19.2,14.4c-0.1-0.1-0.3-0.2-0.5-0.2h-1.6c-0.2,0-0.4,0.1-0.5,0.2
		c-0.1,0.1-0.2,0.3-0.2,0.5c0,0.2,0.1,0.4,0.2,0.5c0.1,0.1,0.3,0.2,0.5,0.2h1.6c0.2,0,0.3-0.1,0.5-0.2s0.2-0.3,0.2-0.5
		C19.4,14.7,19.4,14.5,19.2,14.4z M19.2,14.4c-0.1-0.1-0.3-0.2-0.5-0.2h-1.6c-0.2,0-0.4,0.1-0.5,0.2c-0.1,0.1-0.2,0.3-0.2,0.5
		c0,0.2,0.1,0.4,0.2,0.5c0.1,0.1,0.3,0.2,0.5,0.2h1.6c0.2,0,0.3-0.1,0.5-0.2s0.2-0.3,0.2-0.5C19.4,14.7,19.4,14.5,19.2,14.4z
		 M8.3,14.4c-0.1-0.1-0.3-0.2-0.5-0.2H6.2c-0.2,0-0.3,0.1-0.5,0.2c-0.1,0.1-0.2,0.3-0.2,0.5c0,0.2,0.1,0.4,0.2,0.5s0.3,0.2,0.5,0.2
		h1.6c0.2,0,0.4-0.1,0.5-0.2c0.1-0.1,0.2-0.3,0.2-0.5C8.5,14.7,8.4,14.5,8.3,14.4z M8.3,14.4c-0.1-0.1-0.3-0.2-0.5-0.2H6.2
		c-0.2,0-0.3,0.1-0.5,0.2c-0.1,0.1-0.2,0.3-0.2,0.5c0,0.2,0.1,0.4,0.2,0.5s0.3,0.2,0.5,0.2h1.6c0.2,0,0.4-0.1,0.5-0.2
		c0.1-0.1,0.2-0.3,0.2-0.5C8.5,14.7,8.4,14.5,8.3,14.4z M19.2,14.4c-0.1-0.1-0.3-0.2-0.5-0.2h-1.6c-0.2,0-0.4,0.1-0.5,0.2
		c-0.1,0.1-0.2,0.3-0.2,0.5c0,0.2,0.1,0.4,0.2,0.5c0.1,0.1,0.3,0.2,0.5,0.2h1.6c0.2,0,0.3-0.1,0.5-0.2s0.2-0.3,0.2-0.5
		C19.4,14.7,19.4,14.5,19.2,14.4z M19.2,14.4c-0.1-0.1-0.3-0.2-0.5-0.2h-1.6c-0.2,0-0.4,0.1-0.5,0.2c-0.1,0.1-0.2,0.3-0.2,0.5
		c0,0.2,0.1,0.4,0.2,0.5c0.1,0.1,0.3,0.2,0.5,0.2h1.6c0.2,0,0.3-0.1,0.5-0.2s0.2-0.3,0.2-0.5C19.4,14.7,19.4,14.5,19.2,14.4z
		 M8.3,14.4c-0.1-0.1-0.3-0.2-0.5-0.2H6.2c-0.2,0-0.3,0.1-0.5,0.2c-0.1,0.1-0.2,0.3-0.2,0.5c0,0.2,0.1,0.4,0.2,0.5s0.3,0.2,0.5,0.2
		h1.6c0.2,0,0.4-0.1,0.5-0.2c0.1-0.1,0.2-0.3,0.2-0.5C8.5,14.7,8.4,14.5,8.3,14.4z M19.2,14.4c-0.1-0.1-0.3-0.2-0.5-0.2h-1.6
		c-0.2,0-0.4,0.1-0.5,0.2c-0.1,0.1-0.2,0.3-0.2,0.5c0,0.2,0.1,0.4,0.2,0.5c0.1,0.1,0.3,0.2,0.5,0.2h1.6c0.2,0,0.3-0.1,0.5-0.2
		s0.2-0.3,0.2-0.5C19.4,14.7,19.4,14.5,19.2,14.4z M19.2,14.4c-0.1-0.1-0.3-0.2-0.5-0.2h-1.6c-0.2,0-0.4,0.1-0.5,0.2
		c-0.1,0.1-0.2,0.3-0.2,0.5c0,0.2,0.1,0.4,0.2,0.5c0.1,0.1,0.3,0.2,0.5,0.2h1.6c0.2,0,0.3-0.1,0.5-0.2s0.2-0.3,0.2-0.5
		C19.4,14.7,19.4,14.5,19.2,14.4z M19.2,14.4c-0.1-0.1-0.3-0.2-0.5-0.2h-1.6c-0.2,0-0.4,0.1-0.5,0.2c-0.1,0.1-0.2,0.3-0.2,0.5
		c0,0.2,0.1,0.4,0.2,0.5c0.1,0.1,0.3,0.2,0.5,0.2h1.6c0.2,0,0.3-0.1,0.5-0.2s0.2-0.3,0.2-0.5C19.4,14.7,19.4,14.5,19.2,14.4z
		 M8.3,14.4c-0.1-0.1-0.3-0.2-0.5-0.2H6.2c-0.2,0-0.3,0.1-0.5,0.2c-0.1,0.1-0.2,0.3-0.2,0.5c0,0.2,0.1,0.4,0.2,0.5s0.3,0.2,0.5,0.2
		h1.6c0.2,0,0.4-0.1,0.5-0.2c0.1-0.1,0.2-0.3,0.2-0.5C8.5,14.7,8.4,14.5,8.3,14.4z M19.2,14.4c-0.1-0.1-0.3-0.2-0.5-0.2h-1.6
		c-0.2,0-0.4,0.1-0.5,0.2c-0.1,0.1-0.2,0.3-0.2,0.5c0,0.2,0.1,0.4,0.2,0.5c0.1,0.1,0.3,0.2,0.5,0.2h1.6c0.2,0,0.3-0.1,0.5-0.2
		s0.2-0.3,0.2-0.5C19.4,14.7,19.4,14.5,19.2,14.4z M19.2,14.4c-0.1-0.1-0.3-0.2-0.5-0.2h-1.6c-0.2,0-0.4,0.1-0.5,0.2
		c-0.1,0.1-0.2,0.3-0.2,0.5c0,0.2,0.1,0.4,0.2,0.5c0.1,0.1,0.3,0.2,0.5,0.2h1.6c0.2,0,0.3-0.1,0.5-0.2s0.2-0.3,0.2-0.5
		C19.4,14.7,19.4,14.5,19.2,14.4z M19.2,14.4c-0.1-0.1-0.3-0.2-0.5-0.2h-1.6c-0.2,0-0.4,0.1-0.5,0.2c-0.1,0.1-0.2,0.3-0.2,0.5
		c0,0.2,0.1,0.4,0.2,0.5c0.1,0.1,0.3,0.2,0.5,0.2h1.6c0.2,0,0.3-0.1,0.5-0.2s0.2-0.3,0.2-0.5C19.4,14.7,19.4,14.5,19.2,14.4z
		 M8.3,14.4c-0.1-0.1-0.3-0.2-0.5-0.2H6.2c-0.2,0-0.3,0.1-0.5,0.2c-0.1,0.1-0.2,0.3-0.2,0.5c0,0.2,0.1,0.4,0.2,0.5s0.3,0.2,0.5,0.2
		h1.6c0.2,0,0.4-0.1,0.5-0.2c0.1-0.1,0.2-0.3,0.2-0.5C8.5,14.7,8.4,14.5,8.3,14.4z M8.3,14.4c-0.1-0.1-0.3-0.2-0.5-0.2H6.2
		c-0.2,0-0.3,0.1-0.5,0.2c-0.1,0.1-0.2,0.3-0.2,0.5c0,0.2,0.1,0.4,0.2,0.5s0.3,0.2,0.5,0.2h1.6c0.2,0,0.4-0.1,0.5-0.2
		c0.1-0.1,0.2-0.3,0.2-0.5C8.5,14.7,8.4,14.5,8.3,14.4z M19.2,14.4c-0.1-0.1-0.3-0.2-0.5-0.2h-1.6c-0.2,0-0.4,0.1-0.5,0.2
		c-0.1,0.1-0.2,0.3-0.2,0.5c0,0.2,0.1,0.4,0.2,0.5c0.1,0.1,0.3,0.2,0.5,0.2h1.6c0.2,0,0.3-0.1,0.5-0.2s0.2-0.3,0.2-0.5
		C19.4,14.7,19.4,14.5,19.2,14.4z M19.2,14.4c-0.1-0.1-0.3-0.2-0.5-0.2h-1.6c-0.2,0-0.4,0.1-0.5,0.2c-0.1,0.1-0.2,0.3-0.2,0.5
		c0,0.2,0.1,0.4,0.2,0.5c0.1,0.1,0.3,0.2,0.5,0.2h1.6c0.2,0,0.3-0.1,0.5-0.2s0.2-0.3,0.2-0.5C19.4,14.7,19.4,14.5,19.2,14.4z
		 M19.2,14.4c-0.1-0.1-0.3-0.2-0.5-0.2h-1.6c-0.2,0-0.4,0.1-0.5,0.2c-0.1,0.1-0.2,0.3-0.2,0.5c0,0.2,0.1,0.4,0.2,0.5
		c0.1,0.1,0.3,0.2,0.5,0.2h1.6c0.2,0,0.3-0.1,0.5-0.2s0.2-0.3,0.2-0.5C19.4,14.7,19.4,14.5,19.2,14.4z M19.2,14.4
		c-0.1-0.1-0.3-0.2-0.5-0.2h-1.6c-0.2,0-0.4,0.1-0.5,0.2c-0.1,0.1-0.2,0.3-0.2,0.5c0,0.2,0.1,0.4,0.2,0.5c0.1,0.1,0.3,0.2,0.5,0.2
		h1.6c0.2,0,0.3-0.1,0.5-0.2s0.2-0.3,0.2-0.5C19.4,14.7,19.4,14.5,19.2,14.4z M8.3,14.4c-0.1-0.1-0.3-0.2-0.5-0.2H6.2
		c-0.2,0-0.3,0.1-0.5,0.2c-0.1,0.1-0.2,0.3-0.2,0.5c0,0.2,0.1,0.4,0.2,0.5s0.3,0.2,0.5,0.2h1.6c0.2,0,0.4-0.1,0.5-0.2
		c0.1-0.1,0.2-0.3,0.2-0.5C8.5,14.7,8.4,14.5,8.3,14.4z M8.3,14.4c-0.1-0.1-0.3-0.2-0.5-0.2H6.2c-0.2,0-0.3,0.1-0.5,0.2
		c-0.1,0.1-0.2,0.3-0.2,0.5c0,0.2,0.1,0.4,0.2,0.5s0.3,0.2,0.5,0.2h1.6c0.2,0,0.4-0.1,0.5-0.2c0.1-0.1,0.2-0.3,0.2-0.5
		C8.5,14.7,8.4,14.5,8.3,14.4z"/>
</g>
</svg>
