<svg width="50" height="50" viewBox="0 0 50 50" fill="none" xmlns="http://www.w3.org/2000/svg">
<path d="M17.1875 14.0625C18.0504 14.0625 18.75 13.3629 18.75 12.5C18.75 11.6371 18.0504 10.9375 17.1875 10.9375C16.3246 10.9375 15.625 11.6371 15.625 12.5C15.625 13.3629 16.3246 14.0625 17.1875 14.0625Z" fill="#A8181D"/>
<path d="M17.1875 26.5625C18.0504 26.5625 18.75 25.8629 18.75 25C18.75 24.1371 18.0504 23.4375 17.1875 23.4375C16.3246 23.4375 15.625 24.1371 15.625 25C15.625 25.8629 16.3246 26.5625 17.1875 26.5625Z" fill="#A8181D"/>
<path d="M17.1875 39.0625C18.0504 39.0625 18.75 38.3629 18.75 37.5C18.75 36.6371 18.0504 35.9375 17.1875 35.9375C16.3246 35.9375 15.625 36.6371 15.625 37.5C15.625 38.3629 16.3246 39.0625 17.1875 39.0625Z" fill="#A8181D"/>
<path d="M37.5 4.6875H12.5C11.6712 4.6875 10.8763 5.01674 10.2903 5.60279C9.70424 6.18884 9.375 6.9837 9.375 7.8125V42.1875C9.375 43.0163 9.70424 43.8112 10.2903 44.3972C10.8763 44.9833 11.6712 45.3125 12.5 45.3125H28.125V42.1875H12.5V32.8125H40.625V7.8125C40.625 6.9837 40.2958 6.18884 39.7097 5.60279C39.1237 5.01674 38.3288 4.6875 37.5 4.6875ZM37.5 29.6875H12.5V20.3125H37.5V29.6875ZM37.5 17.1875H12.5V7.8125H37.5V17.1875Z" fill="#A8181D"/>
<path d="M45.3125 38.1484L43.1031 35.9375L39.0625 39.9797L35.0219 35.9375L32.8125 38.1484L36.8531 42.1875L32.8125 46.2281L35.0219 48.4375L39.0625 44.3969L43.1031 48.4375L45.3125 46.2281L41.2719 42.1875L45.3125 38.1484Z" fill="#A8181D"/>
</svg>
