<svg width="25" height="25" viewBox="0 0 25 25" fill="none" xmlns="http://www.w3.org/2000/svg">
<path fill-rule="evenodd" clip-rule="evenodd" d="M5.29688 4.6875L4.96094 3.33594C4.6994 2.29344 3.7623 1.56244 2.6875 1.5625H1.5625V3.125H2.6875C3.05523 3.11429 3.38061 3.36158 3.46875 3.71875L6.25 15.0312L6.53906 16.1953C6.80268 17.2463 7.75241 17.9796 8.83594 17.9687H19.5312V16.4062H8.83594C8.46821 16.417 8.14283 16.1697 8.05469 15.8125L7.96094 15.4219L19.5312 12.6953C20.3867 12.4965 21.0591 11.8361 21.2734 10.9844L22.8359 4.6875H5.29688ZM19.7891 10.6094C19.7168 10.8947 19.4903 11.1151 19.2031 11.1797L7.60156 13.9063L5.6875 6.25H20.875L19.7891 10.6094ZM5.46875 21.0938C5.46875 19.7993 6.51808 18.75 7.8125 18.75C9.10692 18.75 10.1562 19.7993 10.1562 21.0938C10.1562 22.3882 9.10692 23.4375 7.8125 23.4375C6.51808 23.4375 5.46875 22.3882 5.46875 21.0938ZM7.03125 21.0938C7.03125 21.5252 7.38103 21.875 7.8125 21.875C8.24397 21.875 8.59375 21.5252 8.59375 21.0938C8.59375 20.6623 8.24397 20.3125 7.8125 20.3125C7.38103 20.3125 7.03125 20.6623 7.03125 21.0938ZM15.0222 20.1968C15.3849 19.321 16.2395 18.75 17.1875 18.75C18.4819 18.75 19.5312 19.7993 19.5312 21.0938C19.5312 22.0417 18.9602 22.8963 18.0844 23.2591C17.2086 23.6219 16.2005 23.4213 15.5302 22.751C14.8599 22.0807 14.6594 21.0726 15.0222 20.1968ZM16.4062 21.0938C16.4062 21.5252 16.756 21.875 17.1875 21.875C17.619 21.875 17.9688 21.5252 17.9688 21.0938C17.9688 20.6623 17.619 20.3125 17.1875 20.3125C16.756 20.3125 16.4062 20.6623 16.4062 21.0938Z" fill="white"/>
</svg>
