<svg width="25" height="25" viewBox="0 0 25 25" fill="none" xmlns="http://www.w3.org/2000/svg">
<path fill-rule="evenodd" clip-rule="evenodd" d="M12.5 11.7188C15.0888 11.7188 17.1875 9.62008 17.1875 7.03125C17.1875 4.44242 15.0888 2.34375 12.5 2.34375C9.91117 2.34375 7.8125 4.44242 7.8125 7.03125C7.8125 9.62008 9.91117 11.7188 12.5 11.7188ZM12.5 3.90625C14.2259 3.90625 15.625 5.30536 15.625 7.03125C15.625 8.75714 14.2259 10.1562 12.5 10.1562C10.7741 10.1562 9.375 8.75714 9.375 7.03125C9.375 5.30536 10.7741 3.90625 12.5 3.90625ZM2.34375 17.1875C2.34375 15.0301 4.09264 13.2812 6.25 13.2812H18.75C20.9074 13.2812 22.6562 15.0301 22.6562 17.1875V22.6562H21.0938V17.1875C21.0938 15.8931 20.0444 14.8438 18.75 14.8438H6.25C4.95558 14.8438 3.90625 15.8931 3.90625 17.1875V22.6562H2.34375V17.1875Z" fill="white"/>
</svg>
